<svg width="61" height="67" viewBox="0 0 61 67" fill="none" xmlns="http://www.w3.org/2000/svg">
<path fill-rule="evenodd" clip-rule="evenodd" d="M8.84667 25.6235C9.45022 25.5411 9.98 25.4656 10.3421 25.3077V25.2871C10.3086 25.2185 10.2751 25.1499 10.2348 24.992C9.99341 24.0379 9.71176 23.7702 9.37645 23.4476C9.11491 23.2005 8.81984 22.9191 8.49124 22.37C8.12911 21.7591 7.81392 21.0659 7.59933 20.3109C7.41155 19.6314 7.29755 18.9038 7.29755 18.1282C7.29755 17.936 7.29755 17.7438 7.29755 17.5585C7.28414 15.8837 7.27073 14.71 8.26323 13.4814C8.35041 13.3716 8.39736 13.3167 8.43759 13.2617C8.82655 12.7607 8.97408 12.5754 9.866 12.2734C10.1275 12.1841 10.4025 12.0537 10.664 11.9233C11.006 11.7586 11.3346 11.5938 11.6834 11.5115C12.8368 11.2232 14.2518 11.3536 15.9082 11.5115C17.4909 11.6625 19.2948 11.8341 21.2731 11.6625C26.2357 11.2369 28.7236 9.63078 31.6274 7.7501C32.7741 7.00881 33.9879 6.21947 35.4365 5.45072L36.2278 5.02517C38.1793 3.975 40.3453 2.81502 42.5248 2.12864C43.7051 1.75799 45.2811 1.32557 46.8771 1.10593C48.4933 0.879424 50.143 0.87256 51.444 1.34616C53.0602 1.94332 54.0661 2.37574 54.9245 3.00721C55.7828 3.64554 56.4736 4.46233 57.4661 5.82823C58.1032 6.71366 58.7872 8.1482 59.3036 9.6857C59.7663 11.0653 60.0949 12.541 60.1284 13.7903V13.9069C60.1888 16.0004 60.2156 16.7623 59.317 18.4233C59.0487 18.9244 58.8677 19.446 58.6866 19.9814C58.4586 20.6541 58.2172 21.3405 57.788 22.0612C57.1375 23.1456 56.487 24.2301 55.7426 25.2391C54.9915 26.2549 54.1398 27.1816 53.1004 27.9434C48.0172 31.6636 45.9852 32.048 41.3378 32.9334C40.3722 33.1188 39.2858 33.3247 38.0451 33.5855C37.7568 33.6473 37.4818 33.7159 37.2069 33.7845C36.7777 33.8875 36.3485 33.9973 35.8657 34.0728C35.0073 34.2101 33.8806 34.2719 32.7272 34.2787C31.2384 34.2856 29.7161 34.2101 28.67 34.1209L27.8988 34.0522C26.1216 33.8944 25.2633 33.8189 24.4049 33.6335C23.6001 33.4619 22.8356 33.2011 21.3536 32.7001L20.1398 32.2882C19.2076 31.9725 18.6577 31.595 18.1212 31.2175C17.739 30.9498 17.3567 30.6821 16.8337 30.4556C16.7062 30.4007 16.6325 30.3732 16.5721 30.3458C16.4447 30.2977 16.3776 30.2703 16.2972 30.2016C16.2033 30.1261 16.163 30.0506 16.0692 29.879L15.982 29.728C15.8948 29.577 15.8277 29.4672 15.7607 29.3848C15.6936 29.3025 15.6131 29.2338 15.4857 29.1377C15.2577 28.9661 14.9895 28.7808 14.7212 28.6641C14.5335 28.5818 14.3323 28.5337 14.1311 28.5475C14.0774 28.7396 14.0439 28.9593 14.0171 29.1927C13.9769 29.5084 13.9299 29.8516 13.8092 30.2154C13.3264 31.6979 13.3129 32.1921 13.2928 32.7275C13.2794 33.0776 13.2727 33.4345 13.1587 34.0316C13.1051 34.3199 13.0313 34.5602 12.9575 34.8004C12.8636 35.1093 12.7765 35.4113 12.7295 35.8162C12.5753 37.237 12.4076 37.7312 12.1528 38.5068C12.0589 38.7883 11.9516 39.104 11.8309 39.5158C11.4352 40.8543 11.4084 41.5956 11.3883 42.1515C11.3749 42.6251 11.3615 42.9821 11.1603 43.4282L11.053 43.6753L10.7981 43.6204C10.4964 43.5586 10.2281 43.4145 9.93976 43.2635C9.60446 43.085 9.22892 42.886 8.7729 42.8105C8.03522 42.6869 7.59933 42.7693 7.1299 42.8654C6.85495 42.9203 6.57329 42.9752 6.22457 42.9958L5.95633 43.0164L5.88256 42.7487C5.74844 42.2408 5.09123 41.472 4.38039 40.6346C3.77683 39.9277 3.13975 39.1726 2.71056 38.4451C2.18078 37.5528 1.80523 36.434 1.64429 35.2328C1.49675 34.1209 1.53699 32.9403 1.83206 31.8009C1.89912 31.5263 2.07348 31.0939 2.28137 30.6409C2.54961 30.0438 2.8648 29.4054 3.05928 29.0622C3.32082 28.5818 3.58906 28.1974 3.88413 27.8679C4.18591 27.5316 4.5078 27.2502 4.89676 26.9619C6.22457 25.9873 7.67309 25.7882 8.86008 25.6235" fill="black"/>
<path fill-rule="evenodd" clip-rule="evenodd" d="M52.6374 49.0492C52.5569 49.0286 52.4698 49.008 52.3826 48.9874L52.121 48.9119L52.1412 48.6373C52.1814 48.1706 52.3222 47.697 52.4563 47.244C52.4966 47.0998 52.5435 46.9626 52.5838 46.8116C52.8654 45.7614 52.9057 43.6405 52.9325 42.0138C52.9392 41.5127 52.9459 41.0528 52.9593 40.7028L52.9727 40.3184L53.3416 40.3802C53.764 40.4488 54.3274 40.6753 54.8504 40.9567C55.3802 41.2382 55.8832 41.5813 56.1648 41.8834C56.5739 42.3226 56.8824 42.7688 57.0433 43.311C57.2043 43.8533 57.2177 44.4779 57.0567 45.2878C57.0299 45.4182 56.9964 45.5418 56.9629 45.6722C56.7013 46.5851 56.1648 47.5323 55.4339 48.2049C54.6761 48.8982 53.7171 49.2963 52.6307 49.0629M47.1786 32.9604C47.5944 32.8094 47.9968 32.6515 48.3723 32.5829L48.5735 32.5417L48.6942 32.7064C48.8686 32.9467 48.9625 33.1251 49.0496 33.283C49.1569 33.482 49.2441 33.6536 49.5459 33.9419C49.9415 34.3263 50.3573 35.0607 50.7195 35.8638C51.1419 36.811 51.484 37.8612 51.598 38.5132C51.7656 39.4673 51.8126 40.9499 51.7723 42.4325C51.7254 44.0043 51.5778 45.5967 51.3632 46.5782C50.6993 49.6532 49.3648 52.5978 47.5944 55.1717C45.7569 57.8417 43.45 60.1205 40.9151 61.761C40.1774 62.2414 38.8496 62.9347 37.4816 63.4083C36.4824 63.7583 35.4496 63.9848 34.6046 63.9368C34.323 63.9231 34.0212 63.8681 33.706 63.8132C33.3975 63.7583 33.0689 63.7034 32.747 63.6828C32.0898 63.6348 31.5131 63.6005 30.9632 63.5661C27.3352 63.3396 24.9277 63.1955 20.7498 61.102C19.7707 60.6147 18.8855 60.045 18.0539 59.441C17.2291 58.837 16.4713 58.1986 15.747 57.5672C15.3581 57.2308 15.0429 56.8876 14.7277 56.5513C14.3924 56.1944 14.0571 55.8375 13.6614 55.4943C12.9774 54.9109 12.6085 54.3549 12.1659 53.6891C12.0385 53.4901 11.8977 53.2841 11.7636 53.092C11.73 53.037 11.6764 52.9684 11.6227 52.8792C11.4149 52.5634 11.1064 52.0898 10.9454 52.0281C10.6638 51.9182 10.5632 52.0418 10.5028 52.1928C10.476 52.2683 10.4492 52.3438 10.4291 52.4124C10.4022 52.5017 10.3754 52.584 10.3419 52.6733C10.2279 52.9478 9.57067 53.4557 8.85982 53.7989C8.31662 54.0598 7.71978 54.2382 7.27717 54.1696C6.62668 54.0735 6.05666 53.9362 5.54029 53.7372C5.01721 53.5312 4.55449 53.2636 4.13871 52.9066C3.66928 52.5017 3.34068 52.0075 3.13949 51.4584C2.9249 50.8749 2.85113 50.2297 2.89137 49.5502C2.94502 48.6168 3.00537 48.0676 3.17973 47.5872C3.35409 47.0998 3.62234 46.7292 4.09176 46.1664L4.22589 46.0085C4.91662 45.178 5.19827 44.8348 6.55962 44.2582C7.14976 44.0111 7.67954 43.8121 8.22944 43.764C8.79947 43.716 9.3829 43.8258 10.0468 44.1965C10.2413 44.2994 10.4089 44.4367 10.5766 44.5671C10.7509 44.7044 10.9186 44.8348 11.046 44.876C11.2338 44.9377 11.435 44.7181 11.7502 43.7023C11.9379 43.0845 12.0452 42.8992 12.2062 42.6315C12.2732 42.5217 12.347 42.3981 12.4476 42.1854C12.689 41.7049 12.9371 40.8812 13.1383 40.0164C13.3797 39.0006 13.5608 37.9367 13.6078 37.2983L13.6212 37.065C13.7486 35.1705 14.0235 31.0317 14.6606 29.7756L14.8082 29.4873L15.0965 29.6246C15.3916 29.7687 15.6867 29.9335 15.9683 30.1188C16.2835 30.3178 16.5786 30.5375 16.8334 30.7434C16.9474 30.8326 17.0346 30.9012 17.1151 30.963C17.3028 31.1003 17.4437 31.2101 17.6247 31.4023C18.7514 32.5966 19.5226 32.8712 20.837 33.3379C21.0985 33.4271 21.3802 33.5301 21.749 33.6674C22.4129 33.9145 22.9159 34.1135 23.3316 34.2714C24.123 34.5803 24.5723 34.7518 25.0484 34.8685C25.6855 35.0264 26.3896 35.0813 28.046 35.2049H28.0729C28.5959 35.246 29.1056 35.3353 29.6019 35.4245C29.8567 35.4725 30.1115 35.5137 30.3597 35.5481C31.7612 35.754 33.7731 35.6167 35.2618 35.5069H35.4027C36.0062 35.452 38.0382 35.0676 40.211 34.6214C42.7123 34.1067 45.4015 33.5026 46.3135 33.2487C46.5818 33.1732 46.8701 33.0634 47.1585 32.9535L47.1786 32.9604Z" fill="#FDDDB7"/>
<path fill-rule="evenodd" clip-rule="evenodd" d="M49.8947 32.2741C50.0489 32.0407 50.2903 31.9446 50.525 31.8211L52.4497 30.8739C55.6686 29.103 56.4801 27.6822 58.1767 24.8475C59.4039 22.7952 59.9136 22.0402 60.4032 19.1368C60.5976 17.9837 60.9262 16.8923 60.9732 15.7323L61 11.8405C60.8927 8.40864 58.5456 3.199 55.3669 1.70955C53.5562 0.865306 54.4079 1.10554 52.5771 0.577026C51.7724 0.343656 50.0824 0.130878 49.1704 0.0553761C43.3361 -0.445682 36.3818 2.54008 31.4662 5.51211C29.7696 6.54168 28.4552 7.53007 26.4433 8.36745C20.9376 10.6531 16.6256 9.47939 12.6421 10.1109C11.6161 10.2756 9.49024 11.3944 8.77939 12.1151C6.89497 14.0164 5.90917 16.0412 5.77505 18.8622C5.69457 20.5095 6.13718 22.2667 6.95532 23.5983C7.24369 24.065 7.59911 24.367 7.78018 24.7102C3.46814 25.8839 3.15295 27.0645 1.53007 29.9747C0.980165 30.9631 0.658271 31.4093 0.390026 32.6997C-0.159876 35.3216 -0.226938 36.8385 0.839337 39.1448C1.72455 41.0529 3.99122 43.0228 4.23264 43.5582C3.36755 44.025 1.76478 45.9056 1.46301 47.299C0.980165 49.5229 0.993578 51.2388 2.14033 52.7283C3.08589 53.95 4.49418 55.0071 6.164 55.2198C8.75257 55.5493 9.21529 54.4854 10.7309 53.5931C10.9589 53.7716 11.4149 54.5884 11.6362 54.8904C12.1794 55.6111 14.1242 57.4986 14.7948 58.137C15.8745 59.1734 16.1025 59.2489 17.1017 60.1C18.2551 61.0884 20.998 62.7838 22.4599 63.3741C22.983 63.5868 23.5195 63.6829 24.0761 63.882C24.5589 64.0536 25.082 64.2801 25.6587 64.4174C27.9053 64.9596 32.6599 66.0098 34.8998 64.7743C36.5763 63.8545 37.6828 64.5134 41.0627 62.4406C43.886 60.704 44.6236 59.9284 46.8903 57.4986C47.2122 57.1486 47.6146 56.7917 47.9365 56.4073C49.043 55.0551 49.727 54.3619 50.6927 52.742C52.3491 49.969 51.6181 49.8661 52.6978 49.7082C52.9057 49.6807 53.0801 49.667 53.2812 49.6464C55.3534 49.4542 58.1499 47.4363 58.3444 45.0202C58.4919 43.2288 57.6469 41.7942 56.8489 40.9362C56.3661 40.4215 55.9369 40.1538 55.1657 39.8586C53.5428 39.2409 54.0189 39.5154 53.1404 39.2272C53.0801 38.8908 52.9929 38.4859 52.8252 38.2456C52.5235 37.8201 52.4497 38.1495 52.3424 37.4563C51.9803 35.0951 52.2016 35.658 51.1085 33.5302C50.3507 32.0545 50.572 32.734 49.8947 32.2673M10.7242 25.4652C10.6705 25.1289 10.637 25.1975 10.5565 24.8955C10.1139 23.1521 9.54389 23.4816 8.77268 22.1843C8.11548 21.0792 7.62594 19.6859 7.62594 18.1141C7.62594 16.1922 7.49181 14.943 8.51785 13.6732C9.0141 13.0554 9.04093 12.8907 9.96638 12.5681C10.6102 12.3485 11.1869 11.9572 11.7569 11.8131C13.9431 11.264 17.2559 12.321 21.2997 11.9778C28.2942 11.3807 30.4335 8.47041 35.5905 5.73175C37.723 4.59236 40.1775 3.20587 42.6185 2.43712C44.9589 1.70269 48.8418 0.734894 51.3298 1.64778C54.5085 2.82149 55.2596 3.33628 57.1976 6.01317C58.3712 7.63303 59.7258 11.2159 59.7996 13.7899C59.86 15.9039 59.9002 16.6383 59.0284 18.2582C58.4047 19.4113 58.2572 20.6194 57.5061 21.8823C56.2118 24.0444 54.9243 26.1859 52.9124 27.6616C46.83 32.1162 45.1735 31.7387 37.9846 33.2488C37.2335 33.4066 36.5964 33.6057 35.8185 33.7361C33.8871 34.0518 30.5542 33.942 28.7033 33.7773C24.0291 33.3586 24.8272 33.5027 20.2402 31.9652C18.6776 31.4436 18.235 30.7023 16.9609 30.1395C16.3976 29.8924 16.5518 30.0571 16.2634 29.556C16.069 29.2197 15.9818 29.0893 15.6733 28.8628C15.1837 28.499 14.5534 28.0666 13.8828 28.2451C13.6615 28.753 13.7151 29.4119 13.4871 30.0983C12.6958 32.5212 13.1183 32.4114 12.8299 33.9557C12.7025 34.6215 12.4812 35.0265 12.4007 35.7747C12.1995 37.6759 11.9648 37.875 11.5088 39.4193C10.7912 41.8423 11.254 42.3914 10.8583 43.2905C10.2682 43.167 9.71825 42.6316 8.81963 42.4806C7.59911 42.2747 7.16321 42.5973 6.19753 42.6591C5.91587 41.602 3.91745 39.838 2.992 38.2731C2.01962 36.6258 1.5636 34.1685 2.14703 31.8897C2.30127 31.2926 3.00542 29.8306 3.34072 29.2334C3.84368 28.3206 4.34664 27.7852 5.08432 27.2429C7.19004 25.6986 9.69142 26.1859 10.7309 25.4858L10.7242 25.4652ZM48.4327 32.8919C48.8485 33.4616 48.7613 33.6331 49.3179 34.1685C50.116 34.9373 51.0682 37.4014 51.2694 38.5476C51.6047 40.4764 51.4371 44.6152 51.0347 46.4753C49.7002 52.639 45.6363 58.2674 40.7274 61.4453C39.48 62.2553 36.5226 63.6829 34.6114 63.5662C34.0749 63.5319 33.411 63.3603 32.7605 63.3123C28.0863 62.9691 25.652 63.1475 20.8907 60.7658C18.9727 59.8049 17.3901 58.5351 15.9617 57.279C15.1837 56.5995 14.6741 55.8856 13.8693 55.2061C13.0311 54.4923 12.6824 53.8059 12.0319 52.8724C11.824 52.5704 11.3814 51.8154 11.0662 51.6918C10.2413 51.3624 10.2011 52.1174 10.0401 52.5224C9.89261 52.893 8.18255 53.9432 7.32416 53.8128C6.07012 53.6206 5.12455 53.2911 4.35335 52.6253C3.46814 51.8634 3.15295 50.7721 3.22672 49.5435C3.33402 47.7451 3.46143 47.4226 4.34664 46.3587C5.09773 45.4595 5.31903 45.1232 6.68708 44.5397C7.81371 44.0661 8.6855 43.7916 9.89261 44.4642C10.7376 44.931 11.3344 46.1596 12.0654 43.771C12.3336 42.9062 12.4208 42.9542 12.7427 42.309C13.2792 41.2245 13.8559 38.5065 13.9364 37.2916C14.0571 35.5482 14.3254 31.1484 14.9557 29.8992C15.5459 30.1806 16.1494 30.5925 16.6323 30.9769C16.9743 31.2514 17.1419 31.3406 17.3901 31.6015C18.805 33.1046 19.6768 33.2145 21.6417 33.942C25.2563 35.2942 24.4516 35.2256 28.0528 35.507C28.824 35.5687 29.5684 35.7335 30.3195 35.8502C31.8015 36.0698 33.9207 35.9119 35.4362 35.8021C36.7506 35.706 44.7041 34.0244 46.4209 33.5371C47.0848 33.3517 47.8359 32.9879 48.4327 32.8781V32.8919ZM52.4765 48.658C52.5235 48.0746 52.7515 47.45 52.9057 46.8872C53.288 45.4732 53.2343 42.2472 53.2947 40.696C54.0659 40.8264 55.4205 41.5471 55.9302 42.0962C56.688 42.913 57.0434 43.6955 56.7349 45.1987C56.3594 47.0656 54.656 49.3101 52.4698 48.658H52.4765Z" fill="#33647E"/>
<g clip-path="url(#clip0_181_447)">
<path fill-rule="evenodd" clip-rule="evenodd" d="M33.6309 39.5859C34.5292 40.4454 34.2468 40.0181 34.6172 40.9272L35.27 42.651C35.4691 43.2273 35.5525 43.888 35.7701 44.5338C35.9877 45.1696 37.0805 47.261 37.0712 48.031C37.0666 48.5377 36.849 49.5363 36.7795 50.0877C36.7101 50.6292 37.0805 53.4856 35.5155 53.5055C34.006 53.5253 33.0799 52.7603 32.478 51.9009C31.4223 50.3957 32.0705 44.3748 32.4965 43.2869C33.0521 41.8661 33.0336 40.5 33.3485 39.9685L33.6309 39.5859Z" fill="#F88D2A"/>
<path fill-rule="evenodd" clip-rule="evenodd" d="M31.2419 48.9395C31.2419 50.6583 31.7374 51.8754 32.6125 53.1621C32.932 53.634 33.571 54.0612 34.3072 54.2251C35.3305 54.4537 35.7055 54.2401 36.4001 53.7731C37.0992 53.3061 37.0853 52.8739 37.2798 51.8506C37.4558 50.9266 37.7984 51.7959 37.7845 49.4909C37.7753 48.2391 37.4604 48.1794 37.2706 47.1362C37.1409 46.4358 37.1131 45.2187 36.9233 44.6424C36.4001 43.0577 35.5805 42.5312 35.0017 41.0657C34.835 40.6385 34.1081 38.4278 33.52 38.3732C32.9598 38.3235 33.1172 38.8849 33.0431 39.3667C32.9922 39.6996 32.7653 39.9182 32.6495 40.3106L31.955 43.937C31.9504 44.7219 31.8161 44.5033 31.7142 45.0597C31.5244 46.0682 31.2373 47.9509 31.2373 48.9345M33.696 40.1566C34.5202 40.9465 34.2609 40.554 34.6035 41.3886L35.2008 42.9683C35.3814 43.4999 35.4601 44.1059 35.6639 44.6971C35.863 45.2833 36.8677 47.2008 36.8585 47.9062C36.8538 48.3732 36.6547 49.2872 36.5899 49.794C36.5251 50.2907 36.8677 52.9137 35.4277 52.9335C34.0433 52.9534 33.1913 52.248 32.6403 51.4581C31.6726 50.0771 32.2652 44.5481 32.6588 43.5495C33.1681 42.243 33.1542 40.9912 33.4413 40.5043L33.7006 40.1516L33.696 40.1566Z" fill="#33647E"/>
<path fill-rule="evenodd" clip-rule="evenodd" d="M39.7061 38.9696C40.1506 39.1285 41.7758 38.5324 42.9843 38.3486C43.4797 38.2741 44.29 38.2493 44.8271 38.2145C45.9106 38.14 45.8273 38.3287 46.6561 38.4728C47.5266 38.6268 47.9433 37.976 47.4664 37.5091C47.0867 37.1415 44.3363 37.2806 43.7066 37.2905C42.9797 37.3004 42.4842 37.4644 41.8036 37.5041C42.086 36.9527 44.1743 36.0585 44.6605 35.8946C45.0818 35.7505 46.0866 35.6313 46.1283 35.1395C46.1931 34.3794 44.8549 34.8712 44.5215 35.0004C43.7205 35.3084 42.2157 36.0287 41.5952 36.4907L40.3821 37.5041C40.0719 37.8369 39.5764 38.4629 39.7107 38.9696M23.051 41.2547C22.6944 41.513 21.7452 41.8558 21.2498 42.1489C20.5738 42.5463 18.416 44.295 18.3049 44.7321C18.2031 45.1395 18.4716 45.4475 18.8374 45.3928C19.7172 45.2637 20.3376 43.0034 25.1299 42.1439C25.5282 42.0744 25.8754 42.0297 26.0236 41.7167C26.8015 40.0823 22.2268 40.1469 21.1664 40.286C19.231 40.5443 18.5133 40.5443 16.8881 41.3541C15.4527 42.0744 16.0685 42.7351 16.5362 42.5563C16.7399 42.4768 17.101 42.1737 17.4205 42.0197C18.629 41.4385 22.2129 40.8871 23.051 41.2498V41.2547Z" fill="#33647E"/>
<path fill-rule="evenodd" clip-rule="evenodd" d="M24.9681 57.1262C26.3248 56.8431 27.8343 57.2007 28.9733 57.618C31.682 58.6016 30.8393 62.0144 32.2006 61.5127C32.835 61.2792 32.321 60.1963 32.1914 59.7194C31.8163 58.3334 31.1079 57.7025 30.1679 57.0716C29.4873 56.6145 27.7417 55.924 26.7739 55.8445C25.1811 55.7154 24.1856 55.9141 22.9956 56.6145C21.037 57.7571 21.1713 59.2872 22.1761 58.9742C22.6808 58.8152 22.9864 57.5385 24.9635 57.1262" fill="#33647E"/>
</g>
<defs>
<clipPath id="clip0_181_447">
<rect width="31.6665" height="26.8356" fill="white" transform="translate(15.999 34.7227)"/>
</clipPath>
</defs>
</svg>
