<svg width="15" height="13" viewBox="0 0 15 13" fill="none" xmlns="http://www.w3.org/2000/svg">
<path d="M12.12 0.414359C9.05104 -0.13812 5.91896 -0.13812 2.85 0.414359C1.095 0.812485 0 2.03936 0 3.63999V9.32749C0 10.9525 1.095 12.1631 2.88 12.5775C4.40663 12.856 5.95189 12.9973 7.5 13C9.05287 12.9996 10.6031 12.861 12.135 12.5856C13.875 12.2281 15 10.9606 15 9.33562V3.64811C15 2.03124 13.875 0.763735 12.12 0.414359ZM9.945 6.86562L6.195 9.30312C6.13634 9.34185 6.06868 9.36158 6 9.36C5.93489 9.35943 5.87076 9.34275 5.8125 9.31124C5.75353 9.27248 5.7051 9.21746 5.67216 9.1518C5.63923 9.08614 5.62295 9.01219 5.625 8.9375V4.06249C5.62556 3.99053 5.64308 3.91993 5.6759 3.85736C5.70871 3.7948 5.75573 3.74235 5.8125 3.70499C5.87132 3.67085 5.93702 3.65299 6.00375 3.65299C6.07048 3.65299 6.13618 3.67085 6.195 3.70499L9.945 6.14249C9.9992 6.17994 10.0438 6.23158 10.0747 6.29264C10.1056 6.35371 10.1218 6.42222 10.1218 6.49187C10.1218 6.56151 10.1056 6.63003 10.0747 6.69109C10.0438 6.75216 9.9992 6.8038 9.945 6.84124V6.86562Z" fill="#5D5D5D"/>
</svg>
